# xmcd
#
# Track frame offsets:
#	150
#	15020
#	32065
#	50490
#	61550
#	75025
#	90032
#	100887
#	115877
#	132720
#	146495
#	156767
#
# Disc length: 2425 seconds
#
# Revision: 8
# Processed by: cddbd v1.5.2PL0 Copyright (c) Steve Scherf et al.
# Submitted via: EasyCDDAExtractor 15.3.0.1
#
DISCID=7f09770c
DTITLE=Alejandro Fernandez - Muy Dentro De Mi Corazon
DYEAR=1996
DGENRE=Latin
TTITLE0=Dentro De Mi Corazon
TTITLE1=Como Puede Ser
TTITLE2=Nube Viajera
TTITLE3=Que Digan Misa
TTITLE4=Es La Mujer
TTITLE5=Ya Se Que Dices
TTITLE6=Moño Negro
TTITLE7=Abrazame
TTITLE8=Me Llevaras En Ti
TTITLE9=Es Cosa De Hombres
TTITLE10=Chatita Querida
TTITLE11=Popurri Caribeño (La Paloma (Cuando Sali De La Habana), Cuando Sali D
TTITLE11=e Cuba, He Perdido Una Perla)
EXTD=YEAR: 1996
EXTT0=
EXTT1=
EXTT2=
EXTT3=
EXTT4=
EXTT5=
EXTT6=
EXTT7=
EXTT8=
EXTT9=
EXTT10=
EXTT11=
PLAYORDER=
